<?xml version="1.0" encoding="UTF-8"?><svg id="a" xmlns="http://www.w3.org/2000/svg" viewBox="0 0 1751.3 277.9"><path d="M130.31,65.74H0V0H356.73V65.74H226.01v212.16h-95.7V65.74Z"/><path d="M1153.93,219.11v54.93h-68.34c-18.36,0-29.07-9.27-32.13-27.82-6.29,7.77-17,14.98-32.13,21.62-15.1,6.63-523.07,9.96-549.29,9.96h-4.73c-31.96,0-55.68-6.26-71.16-18.79-15.48-12.53-23.22-28.32-23.22-47.37v-2.62c0-18.55,8.51-31.28,20.43-41.21,18.32-15.26,34.27-17.2,64.89-19.32l580.11-8.68c8.55-1.02,12.83-4.53,12.83-10.53,.13-2.84-.73-5.64-2.46-7.9-1.64-2.01-5.6-4.9-14.91-5.82-15.83-1.56-507.46-2.82-522.81-2.82l-138.17,.23v-46.84h146.89c22.66,0,529.18,2.78,545.47,4.15,13.26,.97,26.23,4.32,38.29,9.89,7.68,3.51,14.34,8.92,19.35,15.72,3.95,5.07,6.7,10.96,8.04,17.25,1.09,6.08,1.6,12.24,1.5,18.42v77.45c0,6.76,3.52,10.14,10.57,10.14h10.95Zm-102.69-41.34l-567.75,12.44c-11.33,1.75-19.26,3.94-23.77,6.58-4.52,2.64-6.78,6.71-6.8,12.21v.37c0,6.26,2.89,11.65,8.67,16.17,5.78,4.52,15.22,6.77,28.32,6.77,21.64,0,526.72-4.89,540.55-14.68,13.84-9.78,20.73-20.92,20.73-33.44l.04-6.42Z"/><path d="M1182.21,276.79v-48.41l148.2-97.94h-148.2v-54h273.61v46.55l-155.09,98.31h155.89v55.48h-274.42Z"/><path d="M1476.88,277.9v-48.41l148.2-97.94h-148.2v-54h273.61v46.55l-155.09,98.3h155.89v55.49h-274.42Z"/></svg>