<svg width="259" height="41" viewBox="0 0 259 41" fill="none" xmlns="http://www.w3.org/2000/svg">
<path d="M0 9.65H19.12V40.77H33.16V9.65H52.34V0H0V9.65Z" fill="#F8F8F8"/>
<path d="M166.17 30.6602V19.3002C166.183 18.3948 166.106 17.4903 165.94 16.6002C165.707 15.6802 165.273 14.8231 164.67 14.0902C163.897 13.0935 162.886 12.3062 161.73 11.8002C159.996 11.0711 158.174 10.5702 156.31 10.3102C153.94 9.9002 79.5903 9.7002 76.3103 9.7002H54.7203V16.5802H75.0003C77.2503 16.5802 149.39 16.7702 151.71 17.0002C152.524 16.9842 153.311 17.2896 153.9 17.8502C154.153 18.1823 154.281 18.5932 154.26 19.0102C154.26 19.8902 153.63 20.4102 152.37 20.5502L67.2403 21.7802C62.7736 22.1935 59.5703 23.0935 57.6303 24.4802C56.6675 25.1851 55.8967 26.12 55.3883 27.1996C54.88 28.2792 54.6503 29.469 54.7203 30.6602V31.0502C54.6972 32.4031 54.994 33.7423 55.5866 34.9588C56.1792 36.1752 57.0508 37.2344 58.1303 38.0502C60.397 39.8902 63.877 40.8102 68.5703 40.8102H69.2903C73.1303 40.8102 147.66 40.3202 149.88 39.3402C151.675 38.6636 153.288 37.5783 154.59 36.1702C155.03 38.8902 156.6 40.2502 159.3 40.2502H169.3V32.1502H167.7C166.68 32.1502 166.17 31.6602 166.17 30.6602ZM154.26 27.0002C154.26 28.8402 153.26 30.4769 151.26 31.9102C149.26 33.3502 75.1203 34.0602 71.9503 34.0602C70.4925 34.1789 69.0349 33.8285 67.7903 33.0602C67.4042 32.7958 67.0873 32.4425 66.8663 32.0301C66.6453 31.6176 66.5266 31.1581 66.5203 30.6902V30.6302C66.502 30.268 66.5861 29.908 66.7629 29.5914C66.9398 29.2748 67.2023 29.0145 67.5203 28.8402C68.618 28.3099 69.7984 27.9717 71.0103 27.8402L154.32 26.0102L154.26 27.0002Z" fill="#F8F8F8"/>
<path d="M213.65 18.0497V11.2197H173.5V19.1497H195.24L173.5 33.5197V40.6197H213.76V32.4797H190.89L213.65 18.0497Z" fill="#F8F8F8"/>
<path d="M235.55 32.3203L258.31 17.9003V11.0703H218.16V18.9903H239.9L218.16 33.3603V40.4603H258.43V32.3203H235.55Z" fill="#F8F8F8"/>
</svg>
