<svg width="612" height="246" viewBox="0 0 612 246" fill="none" xmlns="http://www.w3.org/2000/svg">
<path d="M7.1481 154.325C-4.75942 129.887 5.38946 92.5886 27.1894 75.1853C55.3644 52.6526 81.7808 31.2923 195.617 37.1545C305.312 42.7968 328.944 61.9954 343.233 47.8163C364.704 26.456 357.852 37.2278 379.066 17.9925C414.605 -14.2127 492.755 3.26385 541.191 38.9864C560.756 53.422 614.688 90.8299 610.805 149.598C608.24 188.582 580.724 231.046 543.096 241.158C490.337 255.3 463.701 212.873 374.046 196.715C328.175 188.435 280.728 184.148 188.399 191C105.779 197.118 32.0989 205.655 7.11147 154.398L7.1481 154.325Z" fill="#F8F8F8"/>
<path d="M419.562 136.335C424.654 137.544 430.077 136.261 433.851 132.707C435.499 131.132 436.855 129.19 437.185 126.809C437.844 122.082 434.254 118.162 431.762 115.487C421.65 104.752 412.087 107.793 402.341 99.8793C395.197 94.0904 389.628 83.795 390.397 75.3315C391.973 57.3786 422.163 44.1887 444.659 41.1477C490.75 34.9192 533.507 67.4542 554.391 98.7801C561.902 110.028 576.704 132.268 571.831 159.673C571.025 164.18 568.241 179.934 556.113 191.842C518.596 228.774 436.122 185.21 426.047 179.861C416.227 174.659 397.359 163.447 394.281 146.85C393.951 145.018 392.339 136.335 396.516 133.33C398.494 131.865 401.059 132.268 409.266 134.026C413.04 134.832 416.484 135.639 419.598 136.371L419.562 136.335Z" fill="#FDF6B5"/>
<path d="M514.676 208.622C479.686 208.622 440.117 189.68 425.058 181.73C405.603 171.434 394.538 159.856 392.23 147.253C390.801 139.522 391.864 134.136 395.271 131.645C398.056 129.593 401.133 130.143 409.707 131.974C413.48 132.781 416.961 133.587 420.075 134.319C424.619 135.382 429.235 134.209 432.459 131.205C433.998 129.74 434.914 128.164 435.134 126.515C435.61 122.961 432.972 119.847 430.224 116.916C424.985 111.347 419.965 109.772 414.653 108.086C410.22 106.694 405.64 105.265 401.023 101.491C392.89 94.8963 387.54 83.8314 388.31 75.1481C390.032 55.2534 422.127 42.0635 444.367 39.0592C465.8 36.1647 488.516 41.3674 510.023 54.081C528.196 64.816 544.573 80.2775 556.114 97.6075C563.515 108.709 578.903 131.791 573.884 160.04C571.429 173.926 565.933 185.1 557.58 193.344C546.222 204.519 530.944 208.622 514.676 208.622ZM399.704 134.539C398.788 134.539 398.202 134.686 397.726 135.015C395.784 136.444 395.271 140.731 396.334 146.483C398.422 157.768 408.717 168.357 427 178.029C448.397 189.35 520.831 223.644 554.649 190.34C562.379 182.755 567.472 172.277 569.744 159.307C574.47 132.707 560.254 111.42 552.597 99.9524C531.603 68.4799 488.919 37.3005 444.88 43.236C423.812 46.0938 393.879 58.8806 392.413 75.5145C391.79 82.8056 396.59 92.5881 403.588 98.267C407.618 101.528 411.612 102.774 415.862 104.129C421.468 105.888 427.22 107.72 433.229 114.058C435.757 116.769 440.007 121.276 439.201 127.102C438.834 129.703 437.515 132.121 435.244 134.246C430.994 138.24 424.948 139.778 419.049 138.386C415.972 137.653 412.528 136.884 408.754 136.078C403.991 135.052 401.28 134.539 399.668 134.539H399.704Z" fill="#16161D"/>
<path d="M415.749 81.7793C416.409 72.7296 433.079 64.9622 445.317 69.0658C450.153 70.6779 457.187 75.0745 457.7 81.4496C458.396 89.9131 447.405 98.3399 437.036 98.4865C426.045 98.6331 415.163 89.4368 415.749 81.7793Z" fill="#F8F8F8"/>
<path d="M436.782 100.575C430.077 100.575 423.006 97.4608 418.243 92.3681C415.019 88.9241 413.407 85.1136 413.663 81.5963C413.956 77.676 416.594 73.8656 421.137 70.8613C427.183 66.831 437.185 64.1198 446.015 67.0509C450.851 68.663 459.168 73.4626 459.828 81.2666C460.121 84.9305 458.619 88.8141 455.541 92.2215C450.998 97.2044 443.78 100.502 437.112 100.575H436.855H436.782ZM417.803 81.9261C417.62 84.2343 418.903 87.0188 421.284 89.5103C425.241 93.6871 431.286 96.3983 436.782 96.3983C436.855 96.3983 436.929 96.3983 437.002 96.3983C442.571 96.325 448.616 93.5771 452.39 89.4004C454.662 86.8723 455.834 84.1244 455.614 81.5963C455.138 75.954 448.25 72.2169 444.659 71.0078C438.284 68.8828 429.564 70.2384 423.409 74.3419C420.038 76.5769 417.987 79.3614 417.803 81.9261Z" fill="#16161D"/>
<path d="M501.083 98.3405C498.811 93.4676 502.988 84.8576 507.641 84.1248C510.572 83.6485 511.378 86.6895 516.837 89.5473C525.557 94.1271 530.76 90.2434 534.607 94.4202C538.161 98.2306 538.015 106.108 534.314 109.992C532.555 111.86 528.598 112.263 520.794 112.996C508.081 114.168 506.505 112.813 505.992 111.86C504.93 109.882 507.458 108.16 506.505 104.789C505.553 101.382 502.439 101.345 501.046 98.3405H501.083Z" fill="#BAE8FA"/>
<path d="M512.585 115.561C506.979 115.561 505.111 114.572 504.195 112.886C503.242 111.128 503.792 109.516 504.195 108.343C504.561 107.317 504.818 106.511 504.524 105.376C504.231 104.276 503.608 103.763 502.473 102.921C501.41 102.115 500.055 101.126 499.175 99.257C497.49 95.6297 498.626 91.1232 500.238 88.0822C502.033 84.7115 504.634 82.5132 507.309 82.0735C509.91 81.6338 511.486 82.9895 513.134 84.4184C514.234 85.371 515.626 86.5434 517.824 87.7158C521.818 89.8042 524.969 89.9508 527.753 90.0607C530.794 90.2072 533.652 90.3172 536.143 92.9918C540.43 97.6082 540.284 106.731 535.85 111.421C533.505 113.912 529.329 114.279 521.012 115.048C517.531 115.378 514.747 115.524 512.585 115.524V115.561ZM508.225 86.177C508.225 86.177 508.078 86.177 507.968 86.177C506.649 86.3968 505.037 87.899 503.938 90.0241C502.546 92.662 502.143 95.6664 502.986 97.4617C503.389 98.3776 504.085 98.8906 504.964 99.5501C506.246 100.503 507.859 101.712 508.555 104.24C509.214 106.621 508.555 108.49 508.152 109.699C508.005 110.139 507.785 110.761 507.859 110.871C507.968 110.908 509.654 111.934 520.645 110.908C526.984 110.322 531.564 109.882 532.846 108.563C535.74 105.486 535.887 98.8173 533.102 95.8496C531.857 94.4939 530.428 94.3474 527.57 94.2375C524.492 94.0909 520.719 93.9444 515.882 91.4163C513.281 90.0607 511.632 88.6318 510.423 87.6059C509.104 86.5067 508.701 86.2136 508.225 86.2136V86.177Z" fill="#16161D"/>
<path d="M517.532 130.51C522.405 125.82 520.976 120.361 523.577 119.445C526.948 118.309 529.439 127.359 538.306 130.986C546.22 134.247 551.166 129.85 555.123 133.734C559.63 138.204 556.699 147.437 556.222 148.902C555.929 149.818 552.339 160.041 545.487 160.81C538.672 161.579 535.558 152.2 529.146 153.226C523.504 154.142 523.064 161.872 517.532 162.385C512.842 162.825 508.116 157.659 506.357 153.079C503.609 145.935 507.09 137.838 511.743 134.1C514.161 132.159 515.187 132.745 517.532 130.51Z" fill="#F3D2FF"/>
<path d="M516.981 164.547C511.668 164.547 506.466 159.271 504.414 153.849C501.263 145.678 505.183 136.738 510.459 132.488C511.778 131.426 512.841 130.949 513.647 130.62C514.489 130.253 515.112 129.997 516.102 129.008C518.373 126.809 519.033 124.464 519.582 122.376C520.132 120.324 520.718 118.236 522.916 117.466C525.847 116.477 527.863 118.932 530.024 121.533C532.149 124.098 534.824 127.322 539.074 129.044C542.481 130.437 545.193 130.253 547.831 130.033C550.798 129.814 553.839 129.594 556.551 132.232C561.717 137.325 559.079 146.777 558.163 149.525C557.723 150.808 553.803 161.946 545.669 162.862C541.346 163.338 538.341 160.737 535.703 158.465C533.175 156.267 531.49 154.948 529.401 155.277C527.459 155.607 526.287 157.219 524.931 159.124C523.356 161.359 521.377 164.107 517.64 164.474C517.384 164.474 517.164 164.474 516.908 164.474L516.981 164.547ZM518.996 132.049C517.457 133.551 516.321 134.027 515.295 134.467C514.563 134.797 513.94 135.053 513.061 135.786C508.884 139.156 505.953 146.264 508.298 152.383C509.836 156.413 513.903 160.737 517.311 160.37C519.033 160.224 520.059 158.905 521.561 156.78C523.136 154.581 525.078 151.833 528.778 151.247C532.955 150.588 535.886 153.152 538.488 155.387C540.759 157.366 542.701 159.051 545.229 158.795C549.736 158.282 553.07 151.724 554.206 148.316C554.535 147.364 557.247 138.863 553.619 135.309C552.337 134.064 550.945 134.1 548.16 134.284C545.339 134.503 541.822 134.76 537.498 132.965C532.259 130.803 529.108 127.029 526.8 124.245C525.957 123.219 524.822 121.863 524.235 121.533C524.015 121.9 523.759 122.816 523.576 123.512C522.99 125.71 522.074 129.044 518.959 132.049H518.996Z" fill="#16161D"/>
<path d="M492.693 181.693C495.917 177.736 504.82 182.572 507.458 178.909C509.253 176.454 507.531 171.031 504.307 168.283C500.057 164.693 495.953 168.027 490.311 164.363C486.061 161.615 486.024 158.208 482.91 157.951C479.869 157.695 477.304 160.699 475.216 163.191C472.871 165.975 467.815 171.984 469.61 177.59C470.197 179.348 471.113 180.044 480.236 186.163C488.772 191.879 490.751 193.124 491.923 192.318C494.048 190.853 490.055 184.991 492.693 181.693Z" fill="#FFCB9B"/>
<path d="M491.259 194.663C489.244 194.663 486.276 192.685 479.095 187.885C469.862 181.73 468.47 180.777 467.627 178.213C465.466 171.508 471.181 164.73 473.636 161.835C475.871 159.161 478.985 155.497 483.125 155.863C485.727 156.083 487.009 157.768 488.108 159.234C488.951 160.37 489.83 161.542 491.479 162.605C493.824 164.143 495.839 164.217 497.964 164.253C500.346 164.327 503.02 164.4 505.695 166.671C509.505 169.896 511.85 176.454 509.175 180.118C507.16 182.866 503.533 182.536 500.309 182.28C497.817 182.06 495.253 181.84 494.337 183.012C493.531 184.038 493.934 186.017 494.264 187.775C494.703 189.9 495.216 192.575 493.128 194.04C492.505 194.48 491.919 194.7 491.259 194.7V194.663ZM482.576 160.003C480.634 160.003 478.546 162.495 476.824 164.51C474.845 166.891 470.155 172.424 471.584 176.894C471.914 177.956 473.013 178.799 481.403 184.368C485.324 186.969 488.804 189.314 490.453 190.12C490.38 189.607 490.27 189.021 490.16 188.545C489.684 186.163 489.024 182.866 491.076 180.338C493.421 177.443 497.414 177.81 500.675 178.066C502.8 178.249 505.182 178.469 505.805 177.626C506.721 176.381 505.695 172.131 503.02 169.859C501.445 168.54 499.943 168.503 497.854 168.43C495.473 168.357 492.542 168.247 489.207 166.085C486.936 164.62 485.69 162.934 484.774 161.725C483.748 160.37 483.455 160.04 482.759 160.003C482.686 160.003 482.649 160.003 482.576 160.003Z" fill="#16161D"/>
<path d="M224.793 158.759H207.17L202.261 149.27H53.5815L48.672 158.759H31.0488L59.004 106.952H196.838L224.793 158.759ZM196.215 137.582L186.323 118.567H69.5193L59.6269 137.582H196.179H196.215Z" fill="#16161D"/>
<path d="M297.702 144.69V158.759H281.545V149.636C281.545 146.485 280.739 144.177 279.127 142.785C277.514 141.356 274.767 140.66 270.846 140.66H249.889V158.796H233.805V107.685H275.206C290.045 107.685 297.482 112.118 297.482 120.948V121.791C297.482 127.213 294.295 130.914 287.956 133.002C290.851 133.845 293.196 135.201 294.991 137.142C296.786 139.084 297.666 141.612 297.666 144.727L297.702 144.69ZM280.739 124.209C280.739 122.743 280.189 121.571 279.163 120.655C278.137 119.739 276.489 119.263 274.254 119.263H249.889V129.302H274.254C276.452 129.302 278.101 128.862 279.163 127.946C280.226 127.03 280.739 125.821 280.739 124.319V124.246V124.209Z" fill="#16161D"/>
<path d="M326.283 119.116H301.918V106.842H368.6V119.116H344.162V158.796H326.283V119.116Z" fill="#16161D"/>
<path d="M58.707 76.7612H64.6791V83.1363H77.5026V76.7612H83.4747V94.2744H77.5026V87.3864H64.6791V94.2744H58.707V76.7612Z" fill="#16161D"/>
<path d="M92.4506 94.2376H86.4785V76.7244H92.4506V94.2376Z" fill="#16161D"/>
<path d="M105.968 94.5682C104.063 94.5682 102.414 94.4216 100.985 94.1285C99.556 93.8354 98.4568 93.469 97.6874 93.0294C96.918 92.5897 96.2951 92.0768 95.8555 91.4906C95.4158 90.9043 95.1227 90.3548 94.9762 89.8418C94.8296 89.3655 94.793 88.8526 94.793 88.303V88.0465H101.022C101.168 89.9151 102.524 90.8311 106.151 90.8311H107.543C108.752 90.8311 109.265 90.7944 110.035 90.6845C110.804 90.5746 111.39 90.428 111.757 90.2449C112.123 90.0617 112.343 89.8785 112.489 89.6586C112.599 89.4754 112.673 89.219 112.673 88.9625C112.673 88.5961 112.563 88.303 112.379 88.0832C112.16 87.8633 111.683 87.6802 110.951 87.497C110.181 87.3504 109.119 87.2405 107.69 87.2039H105.821L104.429 87.1306C98.2003 86.984 95.0861 85.262 95.0861 82.0012V81.7814C95.0861 81.2318 95.1594 80.6822 95.3059 80.2059C95.4525 79.7296 95.7822 79.2533 96.2219 78.777C96.6982 78.3007 97.2844 77.8977 98.0172 77.5679C98.7499 77.2382 99.7758 76.9817 101.022 76.7619C102.304 76.542 103.769 76.4321 105.455 76.4321H107.213C108.972 76.4321 110.511 76.542 111.83 76.7619C113.149 76.9817 114.248 77.2748 115.017 77.6046C115.823 77.9343 116.483 78.374 116.959 78.8869C117.472 79.3998 117.802 79.8761 117.985 80.3891C118.168 80.902 118.278 81.415 118.278 81.9645V82.1844H112.05C112.05 82.0012 111.976 81.818 111.903 81.7081C111.83 81.5982 111.683 81.415 111.463 81.1951C111.244 80.9753 110.951 80.7921 110.584 80.6456C110.218 80.499 109.705 80.3891 108.972 80.2792C108.276 80.1693 107.726 80.1326 106.774 80.1326H105.894C104.466 80.1326 103.55 80.2059 102.78 80.3891C102.011 80.5723 101.534 80.7188 101.388 80.902C101.241 81.0852 101.131 81.3417 101.131 81.6348C101.131 81.9279 101.205 82.1844 101.388 82.3676C101.571 82.5508 102.011 82.734 102.67 82.8805C103.33 83.0271 104.319 83.137 105.528 83.137H108.752C112.306 83.2469 114.908 83.6866 116.483 84.5292C118.058 85.3719 118.864 86.6543 118.864 88.4129V88.7427C118.864 89.4022 118.791 89.9517 118.645 90.4647C118.498 90.9776 118.168 91.4906 117.692 92.0401C117.216 92.5897 116.556 93.0294 115.787 93.3958C114.981 93.7621 113.918 94.0553 112.526 94.2751C111.134 94.4949 109.522 94.6048 107.69 94.6048H105.931L105.968 94.5682Z" fill="#16161D"/>
<path d="M128.279 80.8645H120.072V76.7244H142.605V80.8645H134.361V94.2742H128.316V80.8645H128.279Z" fill="#16161D"/>
<path d="M157.885 76.4321C159.534 76.4321 161.073 76.542 162.392 76.7619C163.747 76.9817 164.883 77.2382 165.799 77.6046C166.715 77.9709 167.521 78.374 168.217 78.8869C168.913 79.3998 169.426 79.8761 169.829 80.3891C170.232 80.902 170.525 81.4516 170.782 82.0378C171.038 82.624 171.185 83.1736 171.258 83.6499C171.332 84.1262 171.368 84.6025 171.368 85.1521V85.8482C171.368 86.3612 171.368 86.8375 171.258 87.3138C171.185 87.7901 171.038 88.3396 170.782 88.9259C170.525 89.5121 170.232 90.0983 169.866 90.6112C169.5 91.1242 168.95 91.6371 168.254 92.1501C167.558 92.663 166.752 93.1027 165.836 93.4324C164.92 93.7988 163.784 94.0553 162.428 94.2751C161.073 94.4949 159.534 94.6048 157.885 94.6048H157.079C155.43 94.6048 153.892 94.4949 152.536 94.2751C151.18 94.0553 150.008 93.7621 149.129 93.4324C148.213 93.066 147.407 92.663 146.71 92.1501C146.014 91.6371 145.465 91.1242 145.098 90.6112C144.695 90.0983 144.402 89.5487 144.182 88.9259C143.963 88.303 143.816 87.7901 143.743 87.3138C143.669 86.8375 143.633 86.3612 143.633 85.8482V85.1521C143.633 84.6392 143.633 84.1262 143.743 83.6866C143.816 83.2103 143.963 82.6973 144.182 82.0745C144.402 81.4516 144.732 80.902 145.098 80.4257C145.465 79.9128 146.014 79.4365 146.71 78.9235C147.407 78.4106 148.213 78.0076 149.129 77.6412C150.045 77.2748 151.18 77.0183 152.573 76.7985C153.965 76.5787 155.467 76.4688 157.116 76.4688H157.922L157.885 76.4321ZM165.066 85.262C165.066 84.8224 164.993 84.4193 164.883 84.0163C164.773 83.6133 164.517 83.2103 164.187 82.8072C163.857 82.4042 163.381 82.0378 162.868 81.7081C162.318 81.415 161.586 81.1585 160.633 80.9753C159.864 80.8288 158.984 80.7188 157.995 80.6822C157.775 80.6822 157.336 80.6822 157.189 80.6822C152.316 80.7555 149.898 82.2943 149.898 85.262V85.5551C149.898 86.1047 150.008 86.6543 150.228 87.1672C150.448 87.6802 150.814 88.1565 151.327 88.6694C151.84 89.1823 152.646 89.5854 153.708 89.8785C154.698 90.1716 155.907 90.3181 157.299 90.3181C157.409 90.3181 157.739 90.3181 157.922 90.3181C159.204 90.3181 160.34 90.1349 161.256 89.8785C162.318 89.5854 163.125 89.1823 163.674 88.706C164.224 88.1931 164.59 87.7168 164.81 87.2039C165.03 86.6909 165.14 86.178 165.14 85.5918V85.262H165.066Z" fill="#16161D"/>
<path d="M179.537 94.2376H173.564V76.7244H179.537V94.2376Z" fill="#16161D"/>
<path d="M204.127 89.5118V94.2748H198.668V91.1972C198.668 90.1347 198.412 89.3652 197.862 88.8889C197.313 88.4126 196.397 88.1562 195.078 88.1562H188.006V94.2748H182.584V77.0181H196.543C201.563 77.0181 204.054 78.5202 204.054 81.488V81.7811C204.054 83.613 202.992 84.8587 200.83 85.5548C201.819 85.848 202.589 86.2876 203.211 86.9471C203.834 87.6066 204.127 88.4493 204.127 89.5118ZM198.412 82.5871C198.412 82.1108 198.229 81.7078 197.862 81.3781C197.496 81.0483 196.946 80.9017 196.214 80.9017H188.006V84.2725H196.214C196.946 84.2725 197.496 84.1259 197.862 83.7962C198.229 83.4664 198.412 83.0634 198.412 82.5505V82.5871Z" fill="#16161D"/>
<path d="M227.022 76.6509V80.6445H212.733V83.2458H226.655V87.2761H212.733V90.1705H227.278V94.274H206.834V76.6875H227.022V76.6509Z" fill="#16161D"/>
<path d="M256.076 76.6514C257.871 76.6514 259.483 76.7613 260.912 76.9811C262.341 77.201 263.55 77.5307 264.503 77.9337C265.455 78.3368 266.298 78.8131 266.994 79.326C267.69 79.8389 268.203 80.4252 268.57 81.048C268.936 81.7075 269.192 82.3304 269.339 82.9532C269.486 83.5761 269.595 84.2356 269.595 84.9683V85.6645C269.595 86.5072 269.486 87.2766 269.302 88.0093C269.083 88.7421 268.68 89.5115 268.093 90.2809C267.47 91.087 266.701 91.7465 265.748 92.296C264.796 92.8456 263.477 93.3219 261.828 93.6517C260.179 93.9814 258.274 94.2012 256.149 94.2012H243.436V76.6147H256.149L256.076 76.6514ZM249.371 89.9878H255.6C260.729 89.9878 263.294 88.4856 263.294 85.4446V85.2981C263.294 82.2937 260.729 80.7915 255.6 80.7915H249.371V89.9878Z" fill="#16161D"/>
<path d="M292.088 76.6509V80.6445H277.799V83.2458H291.722V87.2761H277.799V90.1705H292.345V94.274H271.9V76.6875H292.088V76.6509Z" fill="#16161D"/>
<path d="M314.443 76.7244V89.9142H327.743V94.2742H308.471V76.7244H314.443Z" fill="#16161D"/>
<path d="M331.88 77.4214L329.572 74.3804H334.592L336.534 77.4214H331.88Z" fill="#16161D"/>
</svg>
