<svg width="385" height="230" viewBox="0 0 385 230" fill="none" xmlns="http://www.w3.org/2000/svg">
<path d="M35.6067 220.475C11.9982 202.59 -9.04131 181.891 3.99865 159.811C21.4611 130.284 99.6196 153.844 105.505 134.609C109.798 120.61 68.2229 108.269 64.8572 77.9132C61.6704 48.5164 95.132 9.75425 130.073 6.50239C170.104 2.84405 221.564 -17.9841 239.011 41.4436C257.123 102.92 313.202 53.1503 332.241 73.7183C344.647 87.116 335.802 99.4081 344.842 133.211C358.647 184.851 390.466 198.004 384.044 212.313C374.288 233.856 300.715 207.679 185.94 212.313C133.748 214.426 107.635 215.483 83.0351 225.613C66.662 232.393 46.2403 228.523 35.6067 220.475Z" fill="#F8F8F8"/>
<path d="M52.712 199.679C50.3271 199.306 47.9888 198.679 45.7368 197.809C43.9257 197.089 42.2152 196.138 40.6476 194.98C39.3617 194.019 38.213 192.887 37.2331 191.615C36.4187 190.474 35.7317 189.247 35.1845 187.956C34.6944 186.82 34.3397 185.631 34.1276 184.412C33.9486 183.337 33.8616 182.249 33.8675 181.16V179.664C33.8646 178.095 34.0337 176.53 34.3715 174.998C34.8452 173.253 35.6151 171.603 36.6478 170.12C37.8555 168.264 39.4262 166.671 41.2655 165.437C43.774 163.905 46.5221 162.806 49.3951 162.185C53.4437 161.235 57.594 160.787 61.7522 160.852H64.0447C68.1282 160.804 72.2052 161.191 76.2067 162.006C79.0428 162.538 81.7831 163.491 84.3363 164.836C86.1217 165.827 87.7135 167.132 89.0353 168.689C90.0614 169.829 90.8614 171.153 91.3929 172.591C91.7311 173.643 91.9119 174.739 91.9294 175.843V176.412H78.2066C78.1134 176.029 77.977 175.659 77.8001 175.307C77.4331 174.715 76.9964 174.169 76.4994 173.681C75.7807 172.925 74.9256 172.313 73.9792 171.876C72.5778 171.267 71.1099 170.825 69.6054 170.559C67.419 170.144 65.1968 169.948 62.9716 169.974C60.3931 169.923 57.8189 170.207 55.3135 170.819C53.5632 171.213 51.9308 172.015 50.5495 173.16C49.5743 174.027 48.8026 175.099 48.2895 176.298C47.825 177.439 47.5928 178.66 47.6066 179.892V180.51C47.6093 181.742 47.8696 182.961 48.3708 184.087C48.9592 185.305 49.7635 186.407 50.7446 187.338C52.132 188.593 53.8074 189.487 55.6224 189.94C58.0648 190.632 60.596 190.961 63.1342 190.916C71.6866 190.916 76.727 188.704 78.2554 184.282C78.2694 184.234 78.2694 184.183 78.2554 184.135H92.092V184.704C92.0807 185.893 91.8832 187.073 91.5067 188.2C90.946 189.682 90.1195 191.048 89.0678 192.233C87.7201 193.811 86.1081 195.142 84.3038 196.167C81.7464 197.513 79.0083 198.482 76.1742 199.045C72.218 199.872 68.1836 200.264 64.1423 200.216H61.7847C58.7507 200.298 55.7152 200.118 52.712 199.679Z" fill="#16161D"/>
<path d="M110.009 199.728H97.002V161.665H110.009V199.728Z" fill="#16161D"/>
<path d="M131.081 161.632L157.713 185.631V161.632H170.575V199.777H157.713L129.406 174.493V199.777H116.545V161.632H131.081Z" fill="#16161D"/>
<path d="M221.123 161.486V170.169H190.003V175.827H220.327V184.575H190.003V190.834H221.611V199.728H177.109V161.486H221.123Z" fill="#16161D"/>
<path d="M227.415 161.632H245.918L260.292 185.371L274.779 161.632H292.664V199.777H279.656V173.372L263.267 199.777H256.292L239.902 173.372V199.777H227.383L227.415 161.632Z" fill="#16161D"/>
<path d="M355.67 199.712H342.89L339.313 192.818H312.177L308.616 199.712H295.836L316.095 161.974H335.444L355.67 199.712ZM334.94 184.298L327.753 170.429H323.688L316.518 184.298H334.94Z" fill="#16161D"/>
<path d="M103.943 78.8079L112.43 44.1593C112.524 43.7708 112.704 43.4086 112.958 43.1002C113.212 42.7917 113.533 42.5451 113.897 42.3791C114.26 42.213 114.657 42.1318 115.056 42.1417C115.456 42.1515 115.848 42.2521 116.203 42.4358L233.53 102.433C234.066 102.703 234.494 103.149 234.743 103.696C234.991 104.243 235.045 104.859 234.895 105.441L225.693 141.455C225.59 141.842 225.4 142.2 225.137 142.502C224.875 142.805 224.547 143.043 224.179 143.2C223.811 143.357 223.411 143.428 223.012 143.407C222.612 143.386 222.222 143.275 221.872 143.081L173.76 116.822C173.254 116.546 172.852 116.113 172.614 115.588C172.376 115.062 172.317 114.474 172.443 113.912L174.525 104.806C174.661 104.23 174.598 103.624 174.343 103.089C174.089 102.554 173.66 102.122 173.126 101.864L165.988 98.3028C165.648 98.1347 165.276 98.0416 164.897 98.0297C164.518 98.0178 164.141 98.0874 163.791 98.2339C163.441 98.3803 163.127 98.6001 162.869 98.8785C162.611 99.1568 162.417 99.4872 162.298 99.8474L159.924 107.132C159.807 107.499 159.611 107.835 159.349 108.118C159.088 108.401 158.767 108.623 158.411 108.769C158.054 108.915 157.67 108.981 157.285 108.962C156.901 108.943 156.525 108.84 156.184 108.66L105.276 81.7671C104.756 81.4935 104.341 81.0535 104.1 80.5172C103.858 79.9809 103.803 79.3792 103.943 78.8079V78.8079Z" fill="#F8F8F8"/>
<path d="M222.198 144.707C221.858 144.623 221.53 144.498 221.222 144.333L173.111 118.009C172.352 117.588 171.749 116.934 171.391 116.143C171.034 115.352 170.941 114.467 171.127 113.619L173.225 104.514C173.287 104.229 173.252 103.932 173.125 103.669C172.998 103.407 172.787 103.195 172.525 103.067L165.388 99.5059C165.219 99.4296 165.036 99.3901 164.851 99.3901C164.666 99.3901 164.483 99.4296 164.315 99.5059C164.14 99.5745 163.984 99.6819 163.857 99.8199C163.73 99.958 163.636 100.123 163.583 100.303L161.209 107.587C161.028 108.139 160.728 108.645 160.331 109.069C159.934 109.494 159.45 109.826 158.911 110.045C158.373 110.263 157.793 110.361 157.213 110.333C156.632 110.304 156.065 110.149 155.551 109.879L104.643 82.9214C103.859 82.5053 103.237 81.8395 102.875 81.0294C102.512 80.2194 102.431 79.3117 102.643 78.4501L111.13 43.8991C111.273 43.3139 111.546 42.7686 111.93 42.3042C112.313 41.8398 112.797 41.4684 113.345 41.218C113.893 40.9676 114.49 40.8447 115.092 40.8585C115.694 40.8722 116.285 41.0224 116.821 41.2976L234.132 101.181C234.936 101.586 235.579 102.252 235.954 103.071C236.329 103.889 236.415 104.811 236.197 105.684L226.994 141.78C226.867 142.292 226.64 142.774 226.325 143.198C226.01 143.621 225.614 143.978 225.16 144.247C224.707 144.516 224.204 144.693 223.681 144.766C223.159 144.839 222.627 144.808 222.116 144.674L222.198 144.707ZM165.843 96.7906C166.133 96.8519 166.413 96.956 166.672 97.0995L173.81 100.644C174.613 101.044 175.257 101.703 175.641 102.514C176.024 103.325 176.124 104.241 175.924 105.115L173.842 114.221C173.778 114.495 173.807 114.783 173.925 115.039C174.043 115.296 174.243 115.505 174.493 115.635L222.588 141.926C222.762 142.019 222.955 142.071 223.152 142.079C223.349 142.087 223.545 142.05 223.726 141.972C223.907 141.894 224.068 141.776 224.197 141.628C224.327 141.479 224.421 141.303 224.474 141.113L233.677 105.05C233.749 104.767 233.722 104.467 233.601 104.201C233.479 103.935 233.271 103.719 233.01 103.587L115.585 43.6227C115.41 43.5389 115.219 43.4955 115.024 43.4955C114.83 43.4955 114.639 43.5389 114.464 43.6227C114.285 43.6998 114.127 43.8181 114.003 43.9678C113.878 44.1176 113.791 44.2946 113.748 44.4844L105.261 79.1167C105.187 79.3982 105.212 79.6963 105.33 79.9621C105.448 80.228 105.653 80.4458 105.911 80.5801L156.819 107.457C156.985 107.547 157.168 107.6 157.357 107.611C157.545 107.623 157.734 107.592 157.91 107.523C158.085 107.453 158.243 107.345 158.372 107.207C158.501 107.069 158.598 106.905 158.656 106.725L160.965 99.4246C161.141 98.8803 161.433 98.3806 161.82 97.9596C162.207 97.5387 162.681 97.2064 163.209 96.9857C164.041 96.6305 164.968 96.5619 165.843 96.7906V96.7906Z" fill="#16161D"/>
<path d="M113.178 75.5071L117.747 55.6382C117.783 55.4677 117.858 55.3078 117.965 55.1708C118.073 55.0338 118.211 54.9233 118.368 54.8479C118.525 54.7725 118.697 54.7342 118.871 54.7359C119.046 54.7376 119.217 54.7793 119.373 54.8577L159.468 73.7673C159.705 73.8797 159.896 74.0705 160.009 74.3075C160.122 74.5446 160.149 74.8132 160.086 75.0681L154.688 96.6929C154.646 96.8591 154.567 97.0136 154.457 97.145C154.346 97.2763 154.208 97.3811 154.052 97.4514C153.895 97.5218 153.725 97.5559 153.554 97.5513C153.382 97.5466 153.214 97.5033 153.062 97.4246L113.812 76.759C113.582 76.6512 113.394 76.4693 113.279 76.2424C113.164 76.0155 113.129 75.7566 113.178 75.5071Z" fill="#F3D2FF"/>
<path d="M153.194 98.0424C153.059 98.0081 152.928 97.959 152.804 97.8961L113.505 77.2305C113.174 77.0641 112.91 76.7896 112.756 76.4525C112.602 76.1155 112.568 75.736 112.66 75.3769L117.212 55.5081C117.267 55.2635 117.378 55.035 117.536 54.8404C117.694 54.6458 117.895 54.4903 118.123 54.3862C118.348 54.2744 118.595 54.2163 118.846 54.2163C119.097 54.2163 119.345 54.2744 119.57 54.3862L159.698 73.2795C160.054 73.437 160.342 73.7174 160.509 74.0696C160.677 74.4217 160.712 74.8222 160.608 75.1981L155.21 96.8229C155.152 97.0707 155.036 97.3013 154.872 97.4962C154.708 97.691 154.501 97.8447 154.267 97.9448C153.929 98.0901 153.553 98.1243 153.194 98.0424ZM118.984 55.2804C118.859 55.2315 118.72 55.2315 118.594 55.2804C118.512 55.3185 118.44 55.375 118.384 55.4455C118.328 55.516 118.288 55.5987 118.269 55.6869L113.7 75.6208C113.674 75.7504 113.689 75.885 113.745 76.005C113.8 76.125 113.893 76.224 114.009 76.2874L153.308 96.9368C153.387 96.9809 153.477 97.004 153.568 97.004C153.659 97.004 153.749 96.9809 153.828 96.9368C153.913 96.9046 153.988 96.8522 154.047 96.7842C154.107 96.7161 154.149 96.6345 154.17 96.5465L159.568 74.9217C159.6 74.7878 159.585 74.647 159.526 74.5227C159.467 74.3984 159.367 74.2982 159.242 74.2388L119.098 55.2804H118.984Z" fill="#16161D"/>
<path d="M181.322 108.01L187.094 90.1243C187.174 89.91 187.299 89.7151 187.46 89.5523C187.621 89.3895 187.814 89.2626 188.028 89.1797C188.241 89.0968 188.469 89.0599 188.698 89.0714C188.926 89.0829 189.15 89.1425 189.354 89.2463L225.645 109.766C225.952 109.952 226.189 110.235 226.319 110.57C226.448 110.906 226.463 111.275 226.36 111.619L220.328 130.252C220.247 130.47 220.12 130.667 219.956 130.831C219.792 130.995 219.595 131.122 219.377 131.204C219.16 131.286 218.928 131.32 218.697 131.304C218.465 131.289 218.24 131.224 218.035 131.114L182.102 109.847C181.787 109.671 181.538 109.395 181.397 109.062C181.256 108.729 181.229 108.359 181.322 108.01V108.01Z" fill="#BAE8FA"/>
<path d="M218.345 131.878C218.139 131.836 217.941 131.759 217.76 131.65L181.746 110.302C181.33 110.064 181.011 109.688 180.842 109.241C180.673 108.793 180.665 108.3 180.819 107.847L186.575 89.9616C186.674 89.6646 186.837 89.3931 187.053 89.1664C187.269 88.9397 187.532 88.7634 187.824 88.65C188.116 88.5367 188.429 88.4891 188.742 88.5107C189.054 88.5322 189.358 88.6223 189.631 88.7747L225.906 109.294C226.33 109.533 226.659 109.911 226.837 110.364C227.014 110.817 227.03 111.318 226.881 111.782L220.849 130.415C220.752 130.718 220.587 130.996 220.368 131.227C220.148 131.458 219.879 131.636 219.581 131.748C219.193 131.92 218.761 131.966 218.345 131.878V131.878ZM188.835 89.6852C188.634 89.6205 188.418 89.6205 188.217 89.6852C188.071 89.7396 187.94 89.8265 187.833 89.9391C187.726 90.0518 187.646 90.1874 187.599 90.3356L181.843 108.221C181.767 108.443 181.771 108.685 181.854 108.904C181.937 109.124 182.094 109.308 182.298 109.424L218.313 130.724C218.453 130.788 218.606 130.821 218.76 130.821C218.914 130.821 219.067 130.788 219.207 130.724C219.351 130.667 219.482 130.58 219.588 130.467C219.695 130.355 219.776 130.22 219.825 130.073L225.857 111.44C225.93 111.214 225.923 110.969 225.837 110.747C225.751 110.525 225.592 110.339 225.386 110.221L189.095 89.7827C189.014 89.7361 188.926 89.7031 188.835 89.6852V89.6852Z" fill="#16161D"/>
<path d="M123.031 45.9149L172.59 38.7283C172.59 38.7283 189.467 35.9317 192.231 47.0043C194.995 58.0769 184.101 76.3686 184.101 76.3686L172.72 70.4502L175.321 60.2069C175.363 60.0487 175.362 59.8825 175.32 59.7246C175.278 59.5666 175.195 59.4224 175.08 59.306C174.966 59.1895 174.823 59.105 174.665 59.0605C174.508 59.0161 174.342 59.0133 174.183 59.0524L158.395 62.8084L123.031 45.9149Z" fill="#F8F8F8"/>
<path d="M184.524 78.1574L171.062 71.1659L173.777 60.5161L158.168 64.2395L118.463 45.2161L172.346 37.3954C175.388 36.9659 178.475 36.9659 181.516 37.3954C188.02 38.3872 192.215 41.5902 193.483 46.6957C196.345 58.0772 185.598 76.3201 185.126 77.0843L184.524 78.1574ZM174.2 69.7514L183.5 74.6292C185.744 70.5643 193.142 56.2724 190.914 47.3786C189.923 43.3788 186.654 40.8748 181.159 40.1107C178.365 39.7122 175.53 39.7122 172.736 40.1107L127.552 46.6144L158.445 61.3941L173.777 57.7357C174.161 57.6453 174.561 57.6553 174.94 57.7647C175.318 57.8741 175.662 58.0793 175.938 58.3604C176.215 58.6415 176.414 58.989 176.516 59.3695C176.619 59.7499 176.622 60.1504 176.525 60.5323L174.2 69.7514Z" fill="#16161D"/>
<path d="M234.783 109.229L294.292 99.9609C294.292 99.9609 313.137 99.9609 310.291 112.237C308.259 120.952 306.861 126.203 306.21 128.496C306.099 128.916 305.882 129.301 305.581 129.614C305.279 129.927 304.903 130.158 304.487 130.285L296.536 132.772C296.242 132.862 295.931 132.878 295.629 132.818C295.327 132.759 295.045 132.626 294.807 132.431C294.569 132.237 294.383 131.987 294.265 131.703C294.147 131.419 294.1 131.111 294.13 130.805L295.121 120.692C295.159 120.386 295.119 120.075 295.007 119.789C294.894 119.502 294.711 119.248 294.476 119.049C294.24 118.851 293.959 118.714 293.657 118.651C293.355 118.589 293.043 118.603 292.748 118.692L228.426 134.04L234.783 109.229Z" fill="#F8F8F8"/>
<path d="M226.555 135.878L233.693 108.042L294.291 98.6113C294.762 98.6113 305.672 98.7251 310.046 104.351C310.933 105.485 311.542 106.811 311.825 108.223C312.107 109.634 312.055 111.093 311.672 112.481C309.656 121.179 308.241 126.447 307.591 128.74C307.417 129.374 307.086 129.954 306.629 130.425C306.171 130.897 305.602 131.246 304.973 131.439L297.006 133.927C296.501 134.08 295.967 134.109 295.448 134.01C294.93 133.91 294.443 133.687 294.031 133.357C293.621 133.02 293.3 132.587 293.096 132.097C292.892 131.606 292.811 131.073 292.86 130.545L293.868 120.431C293.877 120.349 293.865 120.266 293.834 120.189C293.802 120.113 293.753 120.045 293.689 119.992C293.628 119.939 293.554 119.901 293.475 119.881C293.396 119.861 293.314 119.86 293.234 119.878L226.555 135.878ZM235.871 110.432L230.278 132.219L292.437 117.391C292.934 117.28 293.45 117.287 293.944 117.412C294.437 117.536 294.894 117.775 295.279 118.109C295.663 118.443 295.964 118.862 296.156 119.333C296.349 119.804 296.429 120.314 296.388 120.822L295.38 130.951C295.374 131.035 295.389 131.119 295.422 131.196C295.456 131.273 295.507 131.341 295.573 131.394C295.639 131.447 295.716 131.483 295.798 131.499C295.881 131.515 295.966 131.512 296.047 131.488L304.047 129C304.246 128.938 304.427 128.827 304.572 128.676C304.717 128.525 304.822 128.34 304.876 128.138C305.526 125.797 306.924 120.594 308.941 111.879C309.253 110.884 309.322 109.828 309.141 108.801C308.96 107.774 308.534 106.805 307.9 105.977C304.469 101.619 295.413 101.278 294.356 101.262L235.871 110.432Z" fill="#16161D"/>
</svg>
