<svg width="24" height="24" viewBox="0 0 24 24" fill="none" xmlns="http://www.w3.org/2000/svg">
<path d="M5.01793 0.707106C4.62741 0.316582 3.99425 0.316582 3.60372 0.707107L0.707106 3.60372C0.316582 3.99425 0.316582 4.62741 0.707107 5.01793L2.20127 6.5121L6.94797 11.3388C7.33294 11.7303 7.33031 12.3589 6.94209 12.7471L2.20127 17.4879L0.72979 18.8981C0.328013 19.2831 0.317853 19.9221 0.707185 20.3197L3.6038 23.2779C3.99307 23.6755 4.63198 23.6788 5.02542 23.2854L6.5121 21.7987L11.3328 16.978C11.7257 16.5852 12.3634 16.5878 12.7529 16.9839L17.4879 21.7987L18.8907 23.2625C19.2786 23.6672 19.9234 23.6741 20.3198 23.2777L23.2777 20.3198C23.6741 19.9234 23.6672 19.2786 23.2625 18.8907L21.7987 17.4879L16.9839 12.7529C16.5878 12.3634 16.5852 11.7257 16.978 11.3328L21.7987 6.5121L23.2854 5.02542C23.6788 4.63198 23.6755 3.99307 23.2779 3.6038L20.3197 0.707186C19.9221 0.317854 19.2831 0.328013 18.8981 0.72979L17.4879 2.20127L12.7471 6.94209C12.3589 7.33031 11.7303 7.33293 11.3388 6.94797L6.5121 2.20127L5.01793 0.707106Z" fill="#16161D"/>
</svg>
