<svg width="547" height="292" viewBox="0 0 547 292" fill="none" xmlns="http://www.w3.org/2000/svg">
<path d="M2.35155 150.5C2.12568 127.424 -2.82461 116.792 2.3515 109C6.26653 103.127 8.96218 103.043 27.3515 101.5C57.8059 98.9214 56.1506 100.023 82.6712 98.1032C103.62 96.5598 118.32 97.5197 146.008 99.3078C174.392 101.19 195.435 103.919 200.799 104.597C225.4 107.646 133.284 10.1281 246.425 55.2638C253.521 58.0871 240.609 0.30287 301.009 29.0632C329.242 42.5211 327.003 -8.99531 361.071 1.39456C371.536 4.59434 359.038 35.6699 373.079 47.622C396.268 67.3289 463.426 0.566381 479.613 16.49C488.215 24.9976 460.942 100.098 462.937 99.5902C509.785 87.6757 534.273 108.361 536.833 111.091C553.039 128.388 547.852 172.085 527.352 179.698C495.852 191.395 436.285 167.557 429.245 179.698C425.65 185.909 440.03 197.108 435.343 206.049C430.864 214.632 416.352 207.009 400.842 216.589C384.392 226.753 387.911 243.223 370.388 251.109C360.977 255.363 357.645 251.542 350.907 256.379C336.941 266.412 343.114 288.377 335.849 290.881C326.099 294.212 316.312 253.876 289.151 247.044C262.706 240.381 238.03 270.12 224.61 259.636C216.874 253.594 222.727 241.886 214.464 236.089C201.289 226.791 177.027 250.225 167.409 242.583C157.791 234.941 178.363 208.514 167.409 191.029C158.525 176.818 133.849 176.931 100.458 176.931C58.6728 176.931 41.198 179.881 32.3515 181.5C26.5355 182.554 10.1782 184.234 4.85155 178.549C0.353034 173.562 2.48331 164.748 2.35155 150.5Z" fill="#F8F8F8"/>
<path d="M363.989 225.769L333.854 205.742L328.076 258.463L294.309 207.756L238.143 234.822L259.958 188.068L195.812 216.339L252.693 165.368L186.1 138.377L243.997 124.035L199.934 52.8865L269.746 82.3057L265.887 32.2385L307.108 69.2431L354.954 9.06836L345.618 78.4471L470.635 25.3872L386.669 117.052L422.112 122.115L380.646 145.887L415.185 187.051L366.04 182.685L363.989 225.769Z" fill="#F3D2FF"/>
<path d="M419.348 189.235L367.737 184.624L365.629 229.006L335.325 208.867L329.246 263.545L293.615 210.034L234.325 238.606L256.253 191.55L186.197 222.494L249.327 166.027L180.324 137.963L241.195 122.905L195.476 49.0469L267.735 79.5201L263.763 27.9284L306.904 66.6457L357.592 2.87598L347.823 75.5675L477.527 20.5124L390.286 115.753L427.517 121.061L383.397 146.377L419.348 189.235ZM364.349 180.727L411.047 184.887L377.901 145.36L416.713 123.112L383.077 118.35L463.768 30.2623L343.438 81.3271L352.322 15.3363L307.337 71.803L268.017 36.549L271.781 85.0915L204.417 56.7452L246.823 125.221L191.843 138.791L256.027 164.785L205.377 210.165L263.594 184.511L241.892 231.039L294.933 205.441L326.837 253.343L332.483 202.618L362.429 222.513L364.349 180.727Z" fill="#F8F8F8"/>
<path d="M15.2695 117.428H35.7105L51.5588 143.648L67.4824 117.428H87.1893V159.552H72.9785V130.397L54.9092 159.552H47.192L29.1039 130.397V159.552H15.2695V117.428Z" fill="#16161D"/>
<path d="M153.312 117.146V137.418C153.301 139.212 153.086 140.998 152.672 142.744C152.129 144.805 151.265 146.767 150.113 148.56C148.828 150.657 147.184 152.511 145.256 154.038C142.81 155.843 140.045 157.171 137.106 157.953C133.241 159.063 129.232 159.595 125.211 159.534H123.009C119.853 159.558 116.702 159.287 113.597 158.724C111.185 158.26 108.835 157.515 106.596 156.503C104.757 155.674 103.041 154.598 101.495 153.304C100.146 152.181 98.9618 150.876 97.9749 149.426C97.1099 148.105 96.3964 146.691 95.848 145.21C95.3339 143.885 94.9616 142.51 94.7375 141.107C94.5461 139.861 94.4517 138.602 94.4552 137.342V117.146H108.835V136.627C108.828 138.046 109.051 139.457 109.494 140.806C109.986 142.183 110.726 143.459 111.678 144.57C112.935 145.984 114.566 147.014 116.383 147.544C118.815 148.32 121.359 148.689 123.912 148.636C126.465 148.703 129.012 148.334 131.441 147.544C133.238 146.995 134.852 145.967 136.109 144.57C137.077 143.465 137.831 142.188 138.33 140.806C138.758 139.454 138.974 138.045 138.97 136.627V117.146H153.312Z" fill="#16161D"/>
<path d="M173.864 159.214C171.12 158.723 168.459 157.848 165.959 156.616C164.243 155.685 162.742 154.402 161.554 152.852C160.622 151.699 159.907 150.385 159.446 148.975C159.136 147.744 158.984 146.479 158.995 145.21V144.589H174.052C174.372 149.031 177.61 151.271 186.381 151.271H189.713C191.684 151.282 193.653 151.144 195.604 150.857C197.025 150.737 198.417 150.387 199.726 149.822C200.411 149.511 201.007 149.032 201.458 148.429C201.775 147.839 201.915 147.17 201.862 146.502C201.808 145.834 201.563 145.196 201.156 144.664C200.143 143.906 198.949 143.426 197.693 143.271C195.14 142.811 192.551 142.578 189.957 142.575L185.421 142.462H182.052C167.082 142.048 159.597 137.945 159.597 130.152V129.644C159.583 128.367 159.774 127.096 160.162 125.88C160.626 124.57 161.386 123.385 162.383 122.416C163.63 121.172 165.107 120.182 166.731 119.499C169.07 118.589 171.509 117.957 173.996 117.617C177.508 117.076 181.059 116.824 184.612 116.864H188.866C192.582 116.828 196.296 117.093 199.971 117.654C202.603 118.022 205.181 118.705 207.65 119.687C209.385 120.369 210.98 121.365 212.356 122.623C213.391 123.555 214.212 124.701 214.762 125.982C215.311 127.262 215.575 128.647 215.537 130.039V130.604H200.592C200.523 130.204 200.409 129.812 200.253 129.437C199.978 128.963 199.636 128.532 199.237 128.157C198.627 127.588 197.911 127.147 197.129 126.858C195.907 126.432 194.646 126.129 193.364 125.955C191.622 125.671 189.859 125.538 188.094 125.56H185.854C183.33 125.49 180.806 125.692 178.325 126.162C177.122 126.292 175.971 126.719 174.975 127.404C174.755 127.663 174.588 127.962 174.485 128.285C174.381 128.608 174.343 128.949 174.372 129.287C174.361 129.607 174.413 129.927 174.527 130.228C174.64 130.528 174.811 130.803 175.031 131.037C175.943 131.697 177.003 132.124 178.118 132.279C180.387 132.719 182.696 132.927 185.007 132.9H188.376H192.705C201.276 133.051 207.462 134.118 211.264 136.1C213.019 136.923 214.492 138.247 215.497 139.904C216.502 141.562 216.994 143.48 216.911 145.417V146.208C216.926 147.613 216.743 149.014 216.365 150.367C215.886 151.776 215.102 153.061 214.069 154.132C212.781 155.52 211.216 156.623 209.476 157.369C206.963 158.396 204.333 159.111 201.646 159.496C197.79 160.078 193.894 160.349 189.995 160.306H185.835C181.818 160.35 177.807 159.985 173.864 159.214Z" fill="#16161D"/>
<path d="M237.016 159.496H222.674V117.466H237.016V159.496Z" fill="#16161D"/>
<path d="M399.318 137.681V139.319C399.321 140.458 399.245 141.597 399.092 142.726C398.899 144.013 398.564 145.276 398.095 146.49C397.604 147.867 396.94 149.177 396.118 150.386C395.353 151.472 394.448 152.453 393.427 153.304L397.003 156.88L388.947 164.955L382.51 158.386C381.776 158.555 381.004 158.706 380.195 158.856C376.973 159.391 373.711 159.649 370.445 159.628H271.27C267.998 159.648 264.73 159.39 261.502 158.856C258.987 158.463 256.524 157.787 254.161 156.842C252.314 156.075 250.58 155.062 249.004 153.831C247.679 152.81 246.506 151.606 245.522 150.254C244.686 149.053 244.02 147.742 243.545 146.358C243.09 145.141 242.762 143.879 242.566 142.594C242.429 141.463 242.36 140.326 242.359 139.187V137.681C242.359 136.53 242.428 135.38 242.566 134.237C242.763 132.952 243.091 131.69 243.545 130.472C244.017 129.093 244.682 127.787 245.522 126.595C246.502 125.262 247.668 124.077 248.985 123.075C250.554 121.844 252.291 120.843 254.142 120.101C256.518 119.204 258.986 118.573 261.502 118.219C264.731 117.692 267.999 117.44 271.27 117.466H370.445C373.698 117.437 376.947 117.689 380.157 118.219C382.659 118.577 385.114 119.209 387.479 120.101C389.328 120.847 391.064 121.848 392.636 123.075C393.943 124.082 395.102 125.267 396.081 126.595C396.915 127.755 397.592 129.021 398.095 130.359C398.567 131.573 398.901 132.836 399.092 134.124C399.25 135.303 399.326 136.492 399.318 137.681V137.681ZM384.26 144.194C384.599 143.683 384.889 143.141 385.126 142.575C385.583 141.373 385.812 140.096 385.804 138.811V138.039C385.806 137.054 385.679 136.073 385.427 135.121C385.105 134.093 384.602 133.13 383.94 132.279C383.159 131.249 382.18 130.385 381.06 129.738C379.555 128.926 377.938 128.343 376.261 128.007C373.939 127.526 371.573 127.299 369.202 127.329H271.139C260.912 127.593 255.805 131.156 255.817 138.02V138.679C255.804 139.967 256.04 141.245 256.514 142.443C257.062 143.758 257.861 144.954 258.866 145.963C260.301 147.326 262.065 148.293 263.986 148.768C266.44 149.441 268.971 149.789 271.515 149.803H369.391C370.837 149.808 372.282 149.733 373.72 149.577L370.614 146.471L378.689 138.396L384.26 144.194Z" fill="#16161D"/>
<path d="M463.691 117.146V137.418C463.688 139.212 463.473 141 463.051 142.744C462.506 144.801 461.649 146.763 460.51 148.56C459.214 150.649 457.572 152.501 455.654 154.038C453.205 155.84 450.441 157.168 447.503 157.953C443.638 159.061 439.629 159.594 435.608 159.534H433.387C430.231 159.558 427.081 159.287 423.976 158.724C421.563 158.26 419.213 157.515 416.974 156.503C415.135 155.652 413.419 154.556 411.873 153.247C410.513 152.142 409.31 150.856 408.297 149.426C407.458 148.101 406.77 146.687 406.245 145.21C405.74 143.882 405.368 142.508 405.135 141.107C404.959 139.86 404.871 138.602 404.871 137.342V117.146H419.251V136.627C419.238 138.045 419.454 139.456 419.891 140.806C420.391 142.18 421.13 143.454 422.075 144.57C423.339 145.976 424.968 147.005 426.78 147.544C429.213 148.318 431.757 148.687 434.309 148.636C436.863 148.704 439.409 148.334 441.838 147.544C443.635 146.995 445.249 145.967 446.506 144.57C447.475 143.465 448.228 142.188 448.727 140.806C449.164 139.456 449.38 138.045 449.367 136.627V117.146H463.691Z" fill="#16161D"/>
<path d="M519.44 117.277V126.858H485.165V133.107H518.65V142.763H485.165V149.67H520.062V159.496H470.936V117.277H519.44Z" fill="#16161D"/>
</svg>
