<svg width="371" height="193" viewBox="0 0 371 193" fill="none" xmlns="http://www.w3.org/2000/svg">
<path d="M23.5807 188.213C9.58766 181.103 6.71729 161.463 3.51469 139.696C0.179208 116.985 -5.42866 78.7 14.2387 62.7004C25.2551 53.7437 36.7499 57.8101 82.357 64.0957C178.687 77.3845 197.571 68.9328 207.869 59.4313C219.922 48.2953 213.929 41.518 227.005 27.2326C251.377 0.601904 303.682 -10.162 334.312 12.3093C353.222 26.1828 357.023 49.8634 364.637 97.2246C371.268 138.473 374.577 159.11 363.707 172.346C348.053 191.402 324.385 175.655 246.593 181.21C181.704 185.834 164.189 199.216 122.954 189.608C109.931 186.578 98.1042 182.087 78.6361 182.605C48.5769 183.416 37.308 195.189 23.5807 188.2V188.213Z" fill="#F8F8F8"/>
<path d="M267.229 169.423L240.133 67.3914L245.395 55.0062L311.454 24.668L355.612 150.127L347.559 159.017L267.229 169.423Z" fill="#F4B687"/>
<path d="M348.132 160.134L266.353 170.725L238.885 67.2984L244.479 54.1292L312.119 23.0601L312.544 24.2693L356.942 150.38L348.132 160.107V160.134ZM268.093 168.134L346.962 157.915L354.258 149.862L310.764 26.2759L246.287 55.8833L241.37 67.4711L268.107 168.12L268.093 168.134Z" fill="#16161D"/>
<path d="M245.634 55.6309L240.133 67.3914L267.229 169.423L347.559 159.018L355.612 150.127L276.65 159.735L245.634 55.6309Z" fill="#16161D"/>
<path d="M245.396 55.0063L276.652 159.735L355.614 150.127" fill="#FFCB9B"/>
<path d="M355.747 151.297L275.802 161.011L244.268 55.3518L246.513 54.6741L277.49 158.446L355.468 148.958L355.747 151.297Z" fill="#16161D"/>
<path d="M341.806 139.071L281.063 147.376L253.09 60.0425L307.268 37.1858L341.806 139.071ZM282.697 144.772L338.656 137.131L305.846 40.3352L255.987 61.3714L282.697 144.772Z" fill="#16161D"/>
<path d="M234.088 79.2982L273.928 60.3484C273.928 60.3484 283.615 73.7036 274.007 88.1219C269.277 95.2181 261.104 99.4705 252.626 98.4739C245.543 97.65 237.583 93.3178 234.088 79.2982Z" fill="#F8F8F8"/>
<path d="M234.088 79.2981L255.19 69.2783C255.19 69.2783 262.101 83.7498 251.789 89.1583C236.201 97.3442 234.088 79.2981 234.088 79.2981Z" fill="#16161D"/>
<path d="M256.653 75.6172C258.503 75.6172 260.002 74.1179 260.002 72.2684C260.002 70.419 258.503 68.9197 256.653 68.9197C254.804 68.9197 253.305 70.419 253.305 72.2684C253.305 74.1179 254.804 75.6172 256.653 75.6172Z" fill="#F8F8F8"/>
<path d="M281.396 123.802C281.103 123.869 280.784 123.736 280.612 123.457C280.399 123.111 280.519 122.66 280.864 122.447C284.014 120.56 284.691 117.371 284.705 117.331C284.784 116.932 285.17 116.68 285.568 116.759C285.967 116.839 286.22 117.224 286.14 117.623C286.113 117.783 285.356 121.477 281.622 123.709C281.555 123.749 281.475 123.776 281.396 123.802Z" fill="#16161D"/>
<path d="M322.325 114.66C322.193 114.686 322.06 114.686 321.927 114.633C321.874 114.62 316.306 112.56 317.9 105.052C317.98 104.653 318.379 104.401 318.764 104.481C319.163 104.56 319.415 104.959 319.335 105.344C318.02 111.563 322.246 113.171 322.418 113.238C322.804 113.371 322.99 113.796 322.857 114.168C322.764 114.421 322.565 114.593 322.325 114.633V114.66Z" fill="#16161D"/>
<path d="M302.446 124.387C300.453 124.812 298.3 124.998 296.001 124.839C289.051 124.387 284.015 121.198 283.802 121.052C283.457 120.839 283.364 120.374 283.576 120.042C283.789 119.696 284.254 119.603 284.586 119.816C284.666 119.869 289.583 122.965 296.147 123.377C304.918 123.935 312.36 119.683 318.26 110.74C318.486 110.407 318.938 110.314 319.27 110.527C319.602 110.753 319.695 111.205 319.482 111.537C316.054 116.733 310.513 122.633 302.446 124.374V124.387Z" fill="#16161D"/>
<path d="M287.082 54.6343L332.636 46.0896C332.636 46.0896 342.842 75.4046 305.514 79.8298C305.514 79.8298 288.491 83.1653 287.082 54.6343Z" fill="#F8F8F8"/>
<path d="M332.635 46.0896L310.682 50.2357C310.682 50.2357 311.24 66.9131 324.05 65.4381C338.894 63.7238 332.635 46.0896 332.635 46.0896Z" fill="#16161D"/>
<path d="M311.216 56.1891C312.882 56.1891 314.232 54.8386 314.232 53.1726C314.232 51.5066 312.882 50.156 311.216 50.156C309.55 50.156 308.199 51.5066 308.199 53.1726C308.199 54.8386 309.55 56.1891 311.216 56.1891Z" fill="#F8F8F8"/>
<path d="M295.954 152.572C297.756 152.38 299.142 151.514 299.048 150.638C298.955 149.762 297.418 149.208 295.615 149.401C293.813 149.593 292.427 150.459 292.521 151.334C292.614 152.21 294.151 152.764 295.954 152.572Z" fill="#F8F8F8"/>
<path d="M313.393 151.469C317.54 150.982 320.746 149.257 320.554 147.617C320.361 145.977 316.843 145.043 312.695 145.53C308.548 146.017 305.342 147.742 305.534 149.382C305.727 151.022 309.245 151.956 313.393 151.469Z" fill="#F8F8F8"/>
<path d="M331.388 148.416C333.134 148.178 334.428 147.1 334.279 146.01C334.13 144.919 332.595 144.228 330.849 144.466C329.104 144.704 327.81 145.781 327.959 146.872C328.108 147.963 329.643 148.654 331.388 148.416Z" fill="#F8F8F8"/>
<path d="M34.542 115.404C31.6185 114.792 29.3461 114.048 27.7647 113.171C26.1834 112.294 24.9209 111.231 23.9774 109.982C23.0472 108.733 22.4359 107.603 22.1701 106.607C21.9044 105.597 21.7715 104.533 21.7715 103.404V102.872H34.6483C34.9274 106.7 37.718 108.6 45.2395 108.6H48.1098C50.5815 108.6 51.6314 108.494 53.2526 108.281C54.8871 108.068 56.0698 107.776 56.8007 107.377C57.5316 106.979 58.0365 106.593 58.289 106.181C58.5282 105.769 58.6611 105.304 58.6611 104.746C58.6611 103.975 58.4485 103.351 58.0233 102.899C57.598 102.447 56.6147 102.048 55.0599 101.703C53.5051 101.371 51.2593 101.158 48.3225 101.092L44.4421 101.012L41.5452 100.945C28.7215 100.627 22.303 97.0917 22.303 90.3543V89.9158C22.303 88.7464 22.4625 87.67 22.7814 86.6866C23.1004 85.7033 23.7382 84.7066 24.6817 83.7232C25.6385 82.7399 26.8877 81.9027 28.4159 81.2249C29.9574 80.5472 32.0304 79.9891 34.6483 79.5506C37.2662 79.112 40.296 78.8994 43.7644 78.8994H47.4188C51.0201 78.8994 54.1961 79.1253 56.9602 79.5771C59.7109 80.029 61.9169 80.6137 63.5514 81.3313C65.1859 82.0489 66.5281 82.9259 67.5779 83.9491C68.6144 84.9857 69.332 86.0089 69.7174 87.0321C70.1028 88.0554 70.3021 89.1451 70.3021 90.3145V90.8062H57.4784C57.412 90.4208 57.3057 90.0886 57.1861 89.8095C57.0665 89.5304 56.7741 89.1716 56.309 88.7198C55.8439 88.268 55.2459 87.8959 54.5017 87.6036C53.7576 87.3112 52.6546 87.0587 51.1928 86.8195C49.7178 86.5936 48.6015 86.4873 46.6614 86.4873H44.8142C41.8508 86.4873 39.9771 86.6601 38.3957 86.9923C36.8011 87.3378 35.8443 87.6833 35.4988 88.0687C35.1666 88.4408 34.9938 88.9457 34.9938 89.5969C34.9938 90.248 35.1799 90.7131 35.5519 91.0985C35.924 91.4839 36.8011 91.8427 38.1964 92.1749C39.5917 92.4938 41.5585 92.6799 44.1099 92.7065L47.0069 92.7463L50.7277 92.7995C58.0764 92.9324 63.3786 93.8493 66.6477 95.5503C69.9167 97.2512 71.5512 99.9223 71.5512 103.55V104.228C71.5512 105.557 71.3918 106.753 71.0728 107.802C70.7539 108.852 70.1028 109.929 69.1061 111.032C68.1227 112.135 66.7939 113.052 65.1593 113.796C63.5248 114.54 61.2657 115.151 58.4352 115.616C55.5914 116.081 52.2559 116.321 48.4421 116.321H44.7876C40.8675 116.321 37.439 116.015 34.5021 115.39L34.542 115.404Z" fill="#16161D"/>
<path d="M211.218 96.64V98.0619C211.218 99.0718 211.151 100.055 211.032 100.999C210.912 101.942 210.62 103.032 210.168 104.241C209.729 105.464 209.158 106.58 208.454 107.603C207.763 108.626 206.766 109.65 205.477 110.686C204.188 111.709 202.713 112.573 201.025 113.291C199.351 113.995 197.251 114.58 194.726 115.018C192.202 115.457 189.411 115.683 186.328 115.683H99.7914C96.7217 115.683 93.9178 115.457 91.3797 115.018C88.8415 114.58 86.7286 113.995 85.0542 113.291C83.3798 112.573 81.8915 111.709 80.6025 110.686C79.3134 109.663 78.3168 108.626 77.6125 107.603C76.8949 106.58 76.3235 105.464 75.8982 104.241C75.473 103.019 75.1939 101.942 75.0743 100.999C74.9547 100.055 74.875 99.0718 74.875 98.0619V96.64C74.875 95.6035 74.9414 94.6068 75.0743 93.6766C75.1939 92.7464 75.473 91.67 75.8982 90.4607C76.3235 89.2514 76.8949 88.1352 77.6125 87.1252C78.3301 86.1153 79.3134 85.1053 80.5892 84.0954C81.8516 83.0854 83.3399 82.2349 85.0276 81.5439C86.7153 80.8529 88.8415 80.2815 91.3797 79.8696C93.9178 79.4443 96.7217 79.2317 99.7914 79.2317H186.355C189.424 79.2317 192.215 79.4443 194.726 79.8696C197.225 80.2948 199.324 80.8529 201.025 81.5439C202.726 82.2349 204.201 83.0854 205.477 84.0954C206.74 85.1053 207.736 86.1153 208.454 87.1252C209.171 88.1352 209.743 89.2381 210.181 90.4341C210.633 91.6301 210.912 92.7065 211.045 93.65C211.165 94.5935 211.231 95.5902 211.231 96.6267L211.218 96.64ZM199.617 96.9722C199.617 96.0819 199.497 95.2447 199.285 94.4606C199.072 93.6766 198.633 92.8527 197.995 92.0022C197.371 91.1517 196.534 90.4208 195.524 89.8228C194.514 89.2248 193.132 88.7332 191.378 88.3345C189.81 87.9757 187.989 87.7897 185.943 87.7498C185.73 87.7498 101.001 87.7498 100.775 87.7498C91.2335 87.7498 86.4628 90.8328 86.4628 96.9855V97.5569C86.4628 98.6865 86.6621 99.7629 87.0608 100.773C87.4595 101.783 88.1372 102.793 89.0807 103.803C90.0242 104.813 91.4993 105.61 93.5059 106.221C95.4992 106.819 97.931 107.125 100.775 107.125C100.987 107.125 185.73 107.125 185.943 107.125C188.481 107.085 190.673 106.793 192.494 106.248C194.474 105.663 195.962 104.879 196.946 103.882C197.929 102.886 198.62 101.889 199.005 100.879C199.404 99.8692 199.603 98.7928 199.603 97.6632V96.9988L199.617 96.9722Z" fill="#16161D"/>
<path d="M39.4323 164.745C36.8145 164.293 34.6085 163.695 32.8145 162.964C31.0205 162.233 29.4392 161.343 28.0704 160.28C26.6884 159.23 25.612 158.153 24.828 157.09C24.0439 156.014 23.4061 154.858 22.8878 153.635C22.3696 152.399 22.0373 151.283 21.8779 150.273C21.7184 149.263 21.6387 148.253 21.6387 147.257V145.848C21.6387 144.293 21.7981 142.818 22.1171 141.41C22.436 140.001 23.1536 138.459 24.2698 136.732C25.3861 135.004 26.8479 133.529 28.6551 132.293C30.4624 131.058 33.0404 130.021 36.3759 129.171C39.7247 128.32 43.6316 127.908 48.0833 127.908H50.2627C54.6214 127.908 58.4619 128.28 61.7841 128.998C65.1063 129.715 67.6843 130.619 69.5181 131.682C71.3387 132.732 72.827 133.955 73.9832 135.337C75.126 136.719 75.8702 137.955 76.2157 139.044C76.5612 140.134 76.7206 141.184 76.7206 142.18V142.712H63.6046C63.4983 142.327 63.3654 141.968 63.206 141.662C63.0465 141.356 62.6345 140.865 61.9834 140.174C61.3322 139.496 60.5349 138.925 59.5914 138.473C58.6479 138.021 57.2792 137.609 55.4453 137.224C53.6248 136.852 51.5251 136.666 49.1464 136.666C46.3159 136.666 43.8974 136.931 41.8908 137.463C39.8842 137.994 38.3825 138.739 37.3726 139.682C36.3626 140.626 35.645 141.609 35.2198 142.659C34.7946 143.709 34.5819 144.838 34.5819 146.074V146.659C34.5819 147.828 34.8211 148.958 35.2995 150.047C35.7779 151.137 36.5221 152.187 37.5586 153.21C38.5819 154.233 40.1101 155.057 42.13 155.668C44.1499 156.28 46.5153 156.599 49.2395 156.599C57.3456 156.599 62.1296 154.499 63.578 150.313C63.6179 150.247 63.6312 150.193 63.6312 150.167H76.7472V150.698C76.7472 151.775 76.5612 152.878 76.1891 154.007C75.817 155.137 75.0463 156.413 73.8769 157.835C72.7074 159.243 71.2058 160.492 69.3587 161.569C67.5115 162.645 64.9468 163.549 61.6246 164.293C58.3024 165.037 54.5151 165.409 50.2361 165.409H48.0568C44.9073 165.409 42.0237 165.183 39.4058 164.731L39.4323 164.745Z" fill="#16161D"/>
<path d="M93.7308 164.785H81.4121V128.706H93.7308V164.785Z" fill="#16161D"/>
<path d="M141.571 128.546V136.786H112.15V142.141H140.88V150.42H112.15V156.36H142.103V164.785H99.9375V128.533H141.571V128.546Z" fill="#16161D"/>
<path d="M161.968 137.237H145.012V128.679H191.429V137.237H174.42V164.838H161.968V137.237Z" fill="#16161D"/>
<path d="M236.759 128.546V136.786H207.337V142.141H236.068V150.42H207.337V156.36H237.29V164.785H195.125V128.533H236.759V128.546Z" fill="#16161D"/>
</svg>
