<svg width="376" height="368" viewBox="0 0 376 368" fill="none" xmlns="http://www.w3.org/2000/svg">
<path d="M7.72003 255.121C-8.0682 210.403 4.11957 170.309 11.155 146.83C17.4406 125.749 27.0531 105.813 39.6276 87.7789C50.9877 71.808 61.4166 62.4121 81.8399 43.9729C110.809 17.8801 125.294 4.85441 137.337 1.66022C165.954 -5.88968 174.293 14.271 228.155 22.8165C272.933 29.9101 281.541 18.2742 303.268 30.6983C322.905 41.9195 331.865 62.1217 348.936 102.049C366.504 143.159 375.298 163.714 375.94 191.237C376.271 205.549 375.567 260.784 337.142 299.508C325.782 310.957 307.8 319.773 271.857 337.403C233.556 356.07 214.416 365.549 196.744 366.918C175.369 368.577 150.745 358.995 101.56 339.954C60.5889 323.859 50.4704 315.935 45.0283 311.123C27.9495 296.022 15.091 276.721 7.72003 255.121Z" fill="#F8F8F8"/>
<path d="M306.702 276.132L245.743 248.899C245.197 248.655 244.591 248.576 244.001 248.673C243.411 248.77 242.862 249.037 242.422 249.443C241.982 249.849 241.67 250.375 241.524 250.957C241.379 251.538 241.407 252.149 241.604 252.715L263.352 315.915C263.59 316.585 263.588 317.319 263.346 317.988C263.105 318.658 262.638 319.222 262.027 319.585C261.415 319.948 260.697 320.086 259.995 319.977C259.293 319.867 258.651 319.516 258.179 318.984L213.525 269.371C213.121 268.931 212.599 268.618 212.021 268.469C211.444 268.321 210.836 268.344 210.271 268.535C209.706 268.726 209.208 269.077 208.838 269.545C208.468 270.014 208.242 270.58 208.186 271.175L202.413 337.776C202.361 338.49 202.062 339.163 201.568 339.679C201.074 340.195 200.415 340.522 199.706 340.603C198.997 340.684 198.282 340.515 197.684 340.124C197.086 339.732 196.644 339.144 196.433 338.461L175.865 274.888C175.675 274.321 175.326 273.822 174.86 273.45C174.393 273.078 173.829 272.85 173.236 272.793C172.642 272.736 172.045 272.852 171.517 273.129C170.988 273.405 170.55 273.828 170.257 274.349L137.956 332.84C137.616 333.466 137.069 333.954 136.409 334.221C135.749 334.487 135.017 334.514 134.339 334.298C133.661 334.083 133.079 333.637 132.693 333.037C132.307 332.438 132.142 331.723 132.225 331.014L139.157 264.642C139.22 264.047 139.108 263.447 138.836 262.916C138.563 262.384 138.142 261.943 137.623 261.648C137.105 261.353 136.512 261.216 135.916 261.254C135.321 261.292 134.75 261.503 134.273 261.862L80.9491 302.018C80.3828 302.395 79.7072 302.573 79.0289 302.523C78.3507 302.473 77.7083 302.198 77.2032 301.742C76.698 301.285 76.3588 300.673 76.239 300.002C76.1193 299.331 76.2257 298.639 76.5417 298.035L109.856 240.125C110.151 239.605 110.289 239.01 110.253 238.413C110.217 237.816 110.009 237.242 109.654 236.761C109.299 236.28 108.812 235.913 108.253 235.704C107.694 235.495 107.087 235.453 106.504 235.583L41.3647 250.662C40.6762 250.813 39.9567 250.724 39.326 250.408C38.6953 250.092 38.1916 249.57 37.8988 248.927C37.606 248.284 37.5418 247.56 37.7169 246.876C37.892 246.191 38.2957 245.588 38.861 245.165L92.8058 205.756C93.2864 205.401 93.6537 204.914 93.8633 204.354C94.0728 203.793 94.1156 203.184 93.9863 202.6C93.857 202.015 93.5613 201.481 93.135 201.062C92.7087 200.643 92.1702 200.357 91.585 200.239L26.1973 187.628C25.4944 187.497 24.8594 187.124 24.4024 186.572C23.9455 186.021 23.6953 185.327 23.6953 184.611C23.6953 183.894 23.9455 183.2 24.4024 182.649C24.8594 182.097 25.4944 181.724 26.1973 181.593L91.4401 167.675C92.0228 167.546 92.5555 167.25 92.9736 166.823C93.3917 166.396 93.6772 165.857 93.7955 165.27C93.9138 164.684 93.8598 164.076 93.64 163.52C93.4203 162.964 93.0442 162.483 92.5575 162.137L37.847 123.828C37.2073 123.449 36.7267 122.85 36.4948 122.142C36.263 121.435 36.2957 120.667 36.5869 119.981C36.878 119.296 37.4078 118.741 38.0774 118.418C38.7471 118.095 39.5109 118.027 40.2267 118.227L105.511 132.166C106.095 132.292 106.703 132.244 107.261 132.028C107.818 131.812 108.3 131.437 108.648 130.95C108.995 130.463 109.193 129.884 109.217 129.286C109.24 128.687 109.088 128.095 108.78 127.582L74.4724 70.2938C74.0528 69.688 73.8647 68.9511 73.9426 68.2177C74.0206 67.4844 74.3593 66.8037 74.8968 66.3001C75.4343 65.7966 76.1348 65.5038 76.87 65.4754C77.6052 65.447 78.326 65.6849 78.9006 66.1455L132.763 105.492C133.246 105.845 133.821 106.048 134.418 106.077C135.015 106.106 135.607 105.959 136.122 105.655C136.636 105.351 137.051 104.902 137.314 104.365C137.578 103.827 137.679 103.224 137.605 102.63L129.452 36.257C129.36 35.5528 129.515 34.8387 129.89 34.2362C130.265 33.6336 130.837 33.18 131.508 32.9525C132.179 32.725 132.908 32.7378 133.57 32.9886C134.233 33.2394 134.789 33.7127 135.142 34.328L168.519 92.2383C168.817 92.758 169.26 93.1788 169.794 93.4489C170.328 93.719 170.929 93.8265 171.523 93.7581C172.117 93.6898 172.679 93.4485 173.138 93.0642C173.596 92.6798 173.933 92.1692 174.106 91.5953L193.577 27.6493C193.782 26.9688 194.215 26.3805 194.804 25.9845C195.392 25.5886 196.1 25.4097 196.805 25.4782C197.511 25.5467 198.171 25.8585 198.673 26.3603C199.175 26.8621 199.487 27.5229 199.557 28.23L206.572 94.7065C206.633 95.3024 206.866 95.8675 207.243 96.3322C207.62 96.7968 208.125 97.1408 208.694 97.3216C209.264 97.5023 209.874 97.5121 210.449 97.3497C211.025 97.1872 211.54 96.8597 211.931 96.4073L255.675 45.9225C256.14 45.3933 256.772 45.0408 257.466 44.924C258.16 44.8073 258.873 44.9336 259.485 45.2816C260.096 45.6296 260.57 46.1782 260.826 46.8351C261.082 47.4919 261.104 48.2171 260.889 48.8886L240.321 112.482C240.146 113.043 240.136 113.642 240.291 114.209C240.446 114.776 240.76 115.286 241.196 115.68C241.631 116.073 242.171 116.332 242.749 116.427C243.328 116.522 243.922 116.449 244.46 116.215L304.881 87.9448C305.521 87.6424 306.246 87.5715 306.932 87.7441C307.619 87.9167 308.224 88.3222 308.646 88.8916C309.068 89.461 309.28 90.1592 309.246 90.8676C309.212 91.576 308.935 92.2509 308.461 92.7776L263.848 142.557C263.452 143.005 263.193 143.558 263.104 144.15C263.015 144.742 263.099 145.347 263.347 145.892C263.595 146.437 263.995 146.898 264.499 147.219C265.003 147.54 265.589 147.708 266.187 147.701L332.878 146.498C333.583 146.487 334.27 146.719 334.824 147.157C335.378 147.595 335.763 148.21 335.917 148.9C336.07 149.59 335.981 150.312 335.665 150.944C335.349 151.575 334.825 152.078 334.182 152.368L273.346 179.518C272.796 179.755 272.327 180.149 271.997 180.65C271.667 181.152 271.492 181.739 271.492 182.339C271.492 182.94 271.667 183.527 271.997 184.028C272.327 184.53 272.796 184.923 273.346 185.16L334.74 211.253C335.388 211.532 335.919 212.025 336.246 212.651C336.573 213.277 336.674 213.996 336.533 214.688C336.392 215.38 336.017 216.002 335.472 216.449C334.927 216.897 334.245 217.142 333.54 217.144H266.849C266.252 217.144 265.669 217.32 265.171 217.648C264.672 217.976 264.28 218.443 264.043 218.992C263.806 219.54 263.733 220.146 263.835 220.735C263.936 221.325 264.207 221.871 264.614 222.308L310.137 271.175C310.64 271.685 310.949 272.355 311.01 273.069C311.072 273.783 310.882 274.496 310.474 275.084C310.066 275.673 309.466 276.1 308.777 276.291C308.088 276.483 307.354 276.426 306.702 276.132Z" fill="#C1F2B9"/>
<path d="M185.364 244.896C220.585 244.896 249.137 216.275 249.137 180.97C249.137 145.665 220.585 117.045 185.364 117.045C150.142 117.045 121.59 145.665 121.59 180.97C121.59 216.275 150.142 244.896 185.364 244.896Z" fill="#C8FBBF"/>
<path d="M172.825 156.413C172.829 150.914 171.205 145.537 168.16 140.963C165.115 136.39 160.785 132.824 155.717 130.718C150.65 128.612 145.073 128.059 139.693 129.131C134.312 130.203 129.369 132.85 125.49 136.739C121.611 140.627 118.97 145.581 117.901 150.975C116.832 156.368 117.383 161.958 119.484 167.037C121.585 172.117 125.142 176.458 129.705 179.51C134.268 182.562 139.632 184.189 145.118 184.185C152.466 184.185 159.513 181.259 164.709 176.051C169.905 170.842 172.825 163.778 172.825 156.413Z" fill="#F8F8F8"/>
<path d="M147.435 153.218C147.435 150.269 146.563 147.385 144.928 144.933C143.293 142.481 140.97 140.569 138.251 139.44C135.532 138.312 132.541 138.016 129.655 138.592C126.769 139.167 124.118 140.588 122.037 142.673C119.957 144.759 118.54 147.416 117.966 150.309C117.392 153.202 117.686 156.2 118.812 158.925C119.938 161.65 121.845 163.979 124.292 165.618C126.738 167.257 129.615 168.131 132.557 168.131C134.512 168.134 136.448 167.75 138.254 167.002C140.06 166.253 141.702 165.155 143.084 163.77C144.466 162.384 145.562 160.739 146.308 158.929C147.055 157.118 147.438 155.178 147.435 153.218Z" fill="#16161D"/>
<path d="M149.442 151.165C149.446 150.264 149.184 149.383 148.689 148.631C148.194 147.879 147.488 147.291 146.661 146.941C145.833 146.59 144.92 146.494 144.037 146.662C143.155 146.831 142.342 147.258 141.7 147.889C141.059 148.52 140.619 149.327 140.435 150.209C140.25 151.09 140.33 152.007 140.665 152.843C140.999 153.679 141.573 154.397 142.314 154.907C143.055 155.417 143.93 155.695 144.828 155.707C145.43 155.718 146.028 155.609 146.588 155.386C147.147 155.162 147.656 154.83 148.086 154.407C148.516 153.984 148.857 153.479 149.09 152.923C149.323 152.366 149.443 151.769 149.442 151.165Z" fill="#F8F8F8"/>
<path d="M218.533 183.46C224.013 183.46 229.37 181.831 233.926 178.779C238.483 175.727 242.034 171.39 244.131 166.315C246.228 161.24 246.777 155.656 245.708 150.268C244.639 144.881 242 139.932 238.125 136.048C234.25 132.164 229.313 129.519 223.939 128.447C218.564 127.376 212.993 127.926 207.93 130.028C202.867 132.13 198.54 135.69 195.496 140.257C192.451 144.824 190.826 150.194 190.826 155.687C190.826 163.052 193.745 170.117 198.941 175.325C204.137 180.533 211.185 183.46 218.533 183.46Z" fill="#F8F8F8"/>
<path d="M231.073 167.406C234.017 167.406 236.894 166.53 239.341 164.891C241.788 163.251 243.695 160.921 244.82 158.195C245.946 155.468 246.239 152.469 245.663 149.575C245.088 146.682 243.669 144.025 241.586 141.94C239.503 139.855 236.85 138.436 233.963 137.863C231.076 137.29 228.083 137.589 225.365 138.721C222.647 139.852 220.325 141.767 218.693 144.222C217.06 146.677 216.191 149.563 216.195 152.513C216.195 154.471 216.58 156.409 217.328 158.217C218.076 160.025 219.172 161.668 220.554 163.051C221.936 164.434 223.576 165.531 225.381 166.278C227.186 167.025 229.12 167.408 231.073 167.406Z" fill="#16161D"/>
<path d="M218.74 154.981C219.641 154.981 220.522 154.713 221.271 154.211C222.02 153.709 222.604 152.995 222.948 152.16C223.292 151.325 223.38 150.406 223.203 149.52C223.026 148.635 222.59 147.822 221.951 147.184C221.313 146.547 220.5 146.114 219.615 145.94C218.731 145.767 217.815 145.86 216.983 146.209C216.152 146.557 215.442 147.145 214.945 147.898C214.447 148.651 214.183 149.536 214.188 150.439C214.188 151.037 214.305 151.63 214.534 152.182C214.763 152.735 215.099 153.236 215.522 153.658C215.945 154.08 216.447 154.415 216.999 154.642C217.552 154.869 218.143 154.984 218.74 154.981Z" fill="#F8F8F8"/>
<path d="M184.951 217.185C169.039 217.185 155.485 204.284 154.906 203.724C154.511 203.342 154.283 202.818 154.274 202.267C154.264 201.717 154.473 201.185 154.854 200.789C155.236 200.393 155.758 200.165 156.308 200.155C156.857 200.146 157.387 200.355 157.782 200.737C157.906 200.862 171.646 213.908 186.503 212.995C193.58 212.539 199.87 208.972 205.126 202.355C205.292 202.128 205.502 201.938 205.744 201.795C205.985 201.652 206.253 201.56 206.531 201.524C206.809 201.489 207.092 201.51 207.362 201.587C207.631 201.664 207.882 201.795 208.1 201.972C208.318 202.15 208.497 202.369 208.627 202.618C208.758 202.867 208.836 203.14 208.858 203.42C208.88 203.7 208.844 203.982 208.754 204.248C208.664 204.515 208.521 204.76 208.334 204.969C202.229 212.518 194.925 216.625 186.648 217.123C186.11 217.165 185.544 217.185 184.951 217.185Z" fill="#16161D"/>
</svg>
